<svg xmlns="http://www.w3.org/2000/svg" viewBox="0 0 200 120" fill="none">
  <g stroke="white" stroke-width="2.5" stroke-linecap="round" opacity="0.22" fill="none">
    <circle cx="40" cy="60" r="8"/>
    <circle cx="40" cy="60" r="16"/>
    <circle cx="55" cy="45" r="5"/>
    <circle cx="25" cy="45" r="5"/>
    <line x1="40" y1="44" x2="40" y2="30"/>
    <line x1="40" y1="76" x2="40" y2="90"/>
    <line x1="24" y1="60" x2="10" y2="60"/>
    <line x1="56" y1="60" x2="70" y2="60"/>
  </g>
  <g stroke="white" stroke-width="2" stroke-linecap="round" opacity="0.18" fill="none">
    <path d="M 95 100 Q 105 60 120 60 Q 135 60 130 100"/>
    <path d="M 115 100 L 115 75"/>
    <path d="M 125 100 L 125 72"/>
    <path d="M 100 70 Q 100 55 115 55 Q 130 55 130 70" />
    <circle cx="155" cy="60" r="12"/>
    <path d="M 155 48 L 155 42"/>
    <path d="M 155 72 L 155 78"/>
  </g>
</svg>
